<?xml version="1.0"?>
<svg xmlns="http://www.w3.org/2000/svg" width="512" height="512" viewBox="0 0 128 128">
    <defs>
        <linearGradient id="a" x1="115.424" y1="123.286" x2="12.576" y2="20.438" gradientUnits="userSpaceOnUse">
            <stop offset="0" stop-color="#E5F77D"/>
            <stop offset="1" stop-color="#4aceef"/>
        </linearGradient>
    </defs>
    <path d="M45.134,19.765A5.876,5.876,0,0,1,51.006,25.1a1.75,1.75,0,0,1-1.575,1.908,1.606,1.606,0,0,1-.169.008,1.751,1.751,0,0,1-1.74-1.583,2.389,2.389,0,0,0-2.388-2.171H29.866a2.389,2.389,0,0,0-2.388,2.171,1.75,1.75,0,0,1-3.484-.333,5.876,5.876,0,0,1,5.872-5.338ZM90.5,92.11h-5a1.75,1.75,0,0,0,0,3.5h5a1.75,1.75,0,0,0,0-3.5ZM30.833,30.027a1.75,1.75,0,0,0,0,3.5H44.167a1.75,1.75,0,0,0,0-3.5ZM104.006,25.1a5.876,5.876,0,0,0-5.872-5.338H82.866A5.876,5.876,0,0,0,76.994,25.1a1.75,1.75,0,0,0,3.484.333,2.389,2.389,0,0,1,2.388-2.171H98.134a2.389,2.389,0,0,1,2.388,2.171,1.751,1.751,0,0,0,1.74,1.583,1.606,1.606,0,0,0,.169-.008A1.75,1.75,0,0,0,104.006,25.1Zm-6.839,4.924H83.833a1.75,1.75,0,0,0,0,3.5H97.167a1.75,1.75,0,0,0,0-3.5Zm26.458,36.761V88.214a7.4,7.4,0,0,1-7.4,7.4h-.479v12.25h4a1.751,1.751,0,0,1,1.75,1.75v6.875a1.751,1.751,0,0,1-1.75,1.75h-21a1.751,1.751,0,0,1-1.75-1.75V109.61a1.751,1.751,0,0,1,1.75-1.75h4V95.61h-2.625a1.75,1.75,0,0,1,0-3.5h16.1a3.9,3.9,0,0,0,3.9-3.9V76.11H7.875v12.1a3.9,3.9,0,0,0,3.9,3.9h64.1a1.75,1.75,0,0,1,0,3.5H70.5v12.25h4a1.751,1.751,0,0,1,1.75,1.75v6.875a1.751,1.751,0,0,1-1.75,1.75h-21a1.751,1.751,0,0,1-1.75-1.75V109.61a1.751,1.751,0,0,1,1.75-1.75h4V95.61H25.25v12.25h4A1.751,1.751,0,0,1,31,109.61v6.875a1.751,1.751,0,0,1-1.75,1.75h-21a1.751,1.751,0,0,1-1.75-1.75V109.61a1.751,1.751,0,0,1,1.75-1.75h4V95.61h-.479a7.4,7.4,0,0,1-7.4-7.4V66.788a5.072,5.072,0,0,1,.708-10.095H10.93l3.11-32.542A15.835,15.835,0,0,1,29.866,9.765H45.134a1.75,1.75,0,0,1,0,3.5H29.866A12.349,12.349,0,0,0,17.524,24.484L14.446,56.693h4.971A5.084,5.084,0,0,1,24.5,61.776a5.121,5.121,0,0,1-4.375,5.035v5.8h36v-5.8c-2.817-.28-4.4-3.168-4.375-5.034a5.089,5.089,0,0,1,5.083-5.084h3.721L57.476,24.484a12.349,12.349,0,0,0-2.544-6.419A1.75,1.75,0,0,1,57.7,15.917a15.858,15.858,0,0,1,3.264,8.234L64,55.962l3.04-31.811A15.835,15.835,0,0,1,82.866,9.765H98.134A15.835,15.835,0,0,1,113.96,24.151l3.11,32.542h5.847a5.072,5.072,0,0,1,.708,10.095ZM27.5,111.36H10v3.375H27.5Zm45.25,0H55.25v3.375h17.5ZM61,95.61v12.25h6V95.61Zm-45.25,0v12.25h6V95.61ZM5.083,63.36H19.417a1.584,1.584,0,0,0,0-3.167H5.083a1.584,1.584,0,0,0,0,3.167Zm2.792,9.25h8.75V66.86H7.875ZM118,111.36H100.5v3.375H118Zm-5.75-15.75h-6v12.25h6ZM56.515,60.226a1.583,1.583,0,0,0,.318,3.134H71.167a1.584,1.584,0,0,0,0-3.167H56.833A1.518,1.518,0,0,0,56.515,60.226Zm3.11,12.384h8.75V66.86h-8.75Zm12.25,0h36v-5.8c-2.817-.28-4.4-3.168-4.375-5.034a5.089,5.089,0,0,1,5.083-5.084h4.971l-3.078-32.209A12.349,12.349,0,0,0,98.134,13.265H82.866A12.349,12.349,0,0,0,70.524,24.484L67.446,56.693h3.721a5.084,5.084,0,0,1,5.083,5.083,5.121,5.121,0,0,1-4.375,5.035Zm48.25,0V66.86h-8.75v5.75ZM124.5,61.777a1.585,1.585,0,0,0-1.583-1.584H108.583a1.518,1.518,0,0,0-.318.033,1.583,1.583,0,0,0,.318,3.134h14.334A1.585,1.585,0,0,0,124.5,61.777Z"
          fill="url(#a)"/>
</svg>
